<?xml version="1.0" encoding="utf-8"?>
<!-- Generator: Adobe Illustrator 23.0.3, SVG Export Plug-In . SVG Version: 6.00 Build 0)  -->
<svg version="1.1" id="Layer_1" xmlns="http://www.w3.org/2000/svg" xmlns:xlink="http://www.w3.org/1999/xlink" x="0px" y="0px"
	 viewBox="0 0 60 60" style="enable-background:new 0 0 60 60;" xml:space="preserve">
<style type="text/css">
	.st0{fill:#F5B335;}
	.st1{fill:#DB6015;}
	.st2{fill:#9A004F;}
	.st3{fill:#12284C;}
</style>
<g>
	<path class="st0" d="M47.71,21.05l-9.1-9.1c0.98-2.78,3.62-4.76,6.73-4.76c3.93,0,7.13,3.2,7.14,7.14
		C52.47,17.44,50.49,20.08,47.71,21.05z"/>
	<path class="st1" d="M39.61,18.71l-8.95-8.95c-0.35-0.35-0.91-0.35-1.26,0L3.77,35.4c1.62,3.83,4.04,7.24,7.06,10
		c0.59,0.53,1.2,1.04,1.83,1.52l26.95-26.95C39.96,19.62,39.96,19.05,39.61,18.71z"/>
	<path class="st2" d="M52.98,41.09c1.3-1.78,2.39-3.71,3.25-5.77L43.74,22.83c-0.35-0.35-0.91-0.35-1.26,0l-8.95,8.96
		c-0.35,0.35-0.35,0.91,0,1.26l13.81,13.81C49.49,45.21,51.39,43.27,52.98,41.09z"/>
	<path class="st3" d="M29.4,35.92L16.12,49.2c4.1,2.29,8.82,3.61,13.86,3.61c2.61,0,5.13-0.35,7.53-1.02
		c1.46-0.39,2.87-0.89,4.22-1.52c0.74-0.33,1.46-0.71,2.17-1.11L30.66,35.92C30.31,35.57,29.75,35.57,29.4,35.92z"/>
</g>
</svg>
