<?xml version="1.0" encoding="utf-8"?>
<!-- Generator: Adobe Illustrator 23.0.3, SVG Export Plug-In . SVG Version: 6.00 Build 0)  -->
<svg version="1.1" id="Layer_1" xmlns="http://www.w3.org/2000/svg" xmlns:xlink="http://www.w3.org/1999/xlink" x="0px" y="0px"
	 viewBox="0 0 252 108" style="enable-background:new 0 0 252 108;" xml:space="preserve">
<style type="text/css">
	.st0{fill:#F5B335;}
	.st1{fill:#DB6015;}
	.st2{fill:#9A004F;}
	.st3{fill:#12284C;}
</style>
<g>
	<g>
		<path class="st0" d="M62.15,45.31l-9.1-9.1c0.98-2.78,3.62-4.76,6.73-4.76c3.93,0,7.13,3.2,7.14,7.14
			C66.91,41.7,64.93,44.34,62.15,45.31z"/>
		<path class="st1" d="M54.05,42.96l-8.95-8.95c-0.35-0.35-0.91-0.35-1.26,0L18.21,59.65c1.62,3.83,4.04,7.24,7.06,10
			c0.59,0.53,1.2,1.04,1.83,1.52l26.95-26.95C54.4,43.88,54.4,43.31,54.05,42.96z"/>
		<path class="st2" d="M67.42,65.35c1.3-1.78,2.39-3.71,3.25-5.77L58.19,47.09c-0.35-0.35-0.91-0.35-1.26,0l-8.95,8.96
			c-0.35,0.35-0.35,0.91,0,1.26l13.81,13.81C63.93,69.47,65.83,67.53,67.42,65.35z"/>
		<path class="st3" d="M43.84,60.17L30.56,73.45c4.1,2.29,8.82,3.61,13.86,3.61c2.61,0,5.13-0.35,7.53-1.02
			c1.46-0.39,2.87-0.89,4.22-1.52c0.74-0.33,1.46-0.71,2.17-1.11L45.1,60.17C44.76,59.82,44.19,59.82,43.84,60.17z"/>
	</g>
	<g>
		<g>
			<path class="st3" d="M96.4,41.53c-0.83,0-1.52,0.19-2.08,0.57c-0.56,0.38-1.02,0.86-1.37,1.46c-0.35,0.6-0.6,1.25-0.75,1.97
				c-0.15,0.72-0.22,1.43-0.22,2.14c0,0.68,0.07,1.38,0.22,2.08c0.15,0.71,0.38,1.35,0.71,1.92c0.33,0.57,0.77,1.04,1.33,1.41
				c0.56,0.37,1.24,0.55,2.05,0.55c1.24,0,2.2-0.35,2.87-1.04c0.67-0.69,1.09-1.63,1.26-2.79h5c-0.34,2.51-1.31,4.42-2.92,5.73
				c-1.61,1.32-3.67,1.97-6.17,1.97c-1.41,0-2.71-0.24-3.89-0.71c-1.18-0.47-2.19-1.14-3.01-1.99c-0.83-0.85-1.47-1.87-1.94-3.05
				c-0.46-1.18-0.69-2.48-0.69-3.89c0-1.46,0.21-2.82,0.64-4.07c0.43-1.25,1.05-2.34,1.88-3.25c0.83-0.91,1.84-1.63,3.03-2.14
				c1.19-0.51,2.56-0.77,4.09-0.77c1.12,0,2.2,0.15,3.23,0.44c1.03,0.29,1.96,0.74,2.78,1.33c0.82,0.6,1.48,1.34,1.99,2.23
				c0.51,0.89,0.8,1.94,0.88,3.16h-5.08C99.9,42.62,98.62,41.53,96.4,41.53z"/>
			<path class="st3" d="M107.21,43.95c0.07-1.22,0.38-2.23,0.91-3.03c0.54-0.8,1.22-1.45,2.05-1.94c0.83-0.49,1.76-0.83,2.79-1.04
				c1.04-0.21,2.08-0.31,3.12-0.31c0.95,0,1.91,0.07,2.89,0.2c0.97,0.13,1.86,0.4,2.67,0.79c0.8,0.39,1.46,0.93,1.97,1.63
				c0.51,0.69,0.77,1.61,0.77,2.76v9.83c0,0.85,0.05,1.67,0.15,2.45c0.1,0.78,0.27,1.36,0.51,1.75h-5.26
				c-0.1-0.29-0.18-0.59-0.24-0.89c-0.06-0.3-0.1-0.62-0.13-0.93c-0.83,0.85-1.8,1.45-2.92,1.79c-1.12,0.34-2.26,0.51-3.43,0.51
				c-0.9,0-1.74-0.11-2.52-0.33c-0.78-0.22-1.46-0.56-2.05-1.02c-0.58-0.46-1.04-1.05-1.37-1.75c-0.33-0.71-0.49-1.55-0.49-2.52
				c0-1.07,0.19-1.95,0.57-2.65c0.38-0.69,0.86-1.25,1.46-1.66c0.6-0.41,1.28-0.72,2.05-0.93c0.77-0.21,1.54-0.37,2.32-0.49
				c0.78-0.12,1.55-0.22,2.3-0.29c0.75-0.07,1.42-0.18,2.01-0.33c0.59-0.15,1.05-0.36,1.39-0.64c0.34-0.28,0.5-0.69,0.47-1.22
				c0-0.56-0.09-1-0.27-1.33c-0.18-0.33-0.43-0.58-0.73-0.77c-0.3-0.18-0.66-0.3-1.06-0.37c-0.4-0.06-0.84-0.09-1.3-0.09
				c-1.02,0-1.83,0.22-2.41,0.66c-0.58,0.44-0.93,1.17-1.02,2.19H107.21z M119.2,47.78c-0.22,0.2-0.49,0.35-0.82,0.46
				c-0.33,0.11-0.68,0.2-1.06,0.27c-0.38,0.07-0.77,0.13-1.19,0.18c-0.41,0.05-0.83,0.11-1.24,0.18c-0.39,0.07-0.77,0.17-1.15,0.29
				s-0.71,0.29-0.99,0.49c-0.28,0.21-0.51,0.47-0.68,0.79c-0.17,0.32-0.26,0.72-0.26,1.21c0,0.46,0.09,0.85,0.26,1.17
				c0.17,0.32,0.4,0.57,0.69,0.75c0.29,0.18,0.63,0.31,1.02,0.38c0.39,0.07,0.79,0.11,1.21,0.11c1.02,0,1.81-0.17,2.37-0.51
				c0.56-0.34,0.97-0.75,1.24-1.22c0.27-0.47,0.43-0.96,0.49-1.44c0.06-0.49,0.09-0.88,0.09-1.17V47.78z"/>
			<path class="st3" d="M131.85,52.33c0.23,0.4,0.53,0.73,0.89,0.99c0.37,0.26,0.79,0.44,1.26,0.57c0.48,0.12,0.97,0.18,1.48,0.18
				c0.37,0,0.75-0.04,1.15-0.13c0.4-0.09,0.77-0.22,1.1-0.4c0.33-0.18,0.6-0.43,0.82-0.73c0.22-0.3,0.33-0.69,0.33-1.15
				c0-0.78-0.52-1.36-1.55-1.75c-1.04-0.39-2.48-0.78-4.33-1.17c-0.76-0.17-1.49-0.37-2.21-0.6c-0.72-0.23-1.36-0.54-1.92-0.91
				c-0.56-0.38-1.01-0.85-1.35-1.42c-0.34-0.57-0.51-1.27-0.51-2.1c0-1.22,0.24-2.22,0.71-3c0.47-0.78,1.1-1.39,1.88-1.84
				c0.78-0.45,1.66-0.77,2.63-0.95c0.97-0.18,1.97-0.27,3-0.27c1.02,0,2.01,0.1,2.98,0.29c0.96,0.2,1.82,0.52,2.58,0.99
				c0.75,0.46,1.38,1.08,1.88,1.84c0.5,0.77,0.8,1.73,0.89,2.9h-4.93c-0.07-1-0.45-1.67-1.13-2.03c-0.68-0.35-1.49-0.53-2.41-0.53
				c-0.29,0-0.61,0.02-0.95,0.05c-0.34,0.04-0.65,0.12-0.93,0.24c-0.28,0.12-0.52,0.3-0.71,0.53c-0.2,0.23-0.29,0.54-0.29,0.93
				c0,0.46,0.17,0.84,0.51,1.13c0.34,0.29,0.79,0.53,1.33,0.71c0.55,0.18,1.17,0.35,1.88,0.49c0.71,0.15,1.43,0.31,2.16,0.48
				c0.75,0.17,1.49,0.38,2.21,0.62c0.72,0.24,1.36,0.57,1.92,0.97c0.56,0.4,1.01,0.9,1.35,1.5s0.51,1.33,0.51,2.21
				c0,1.24-0.25,2.28-0.75,3.12c-0.5,0.84-1.15,1.52-1.95,2.03c-0.8,0.51-1.72,0.87-2.76,1.08c-1.04,0.21-2.09,0.31-3.16,0.31
				c-1.1,0-2.17-0.11-3.21-0.33c-1.05-0.22-1.98-0.58-2.79-1.1c-0.82-0.51-1.49-1.19-2.01-2.03c-0.52-0.84-0.81-1.89-0.86-3.16h4.93
				C131.5,51.45,131.62,51.93,131.85,52.33z"/>
			<path class="st3" d="M155.21,41.53c-0.83,0-1.52,0.19-2.08,0.57c-0.56,0.38-1.02,0.86-1.37,1.46c-0.35,0.6-0.6,1.25-0.75,1.97
				c-0.15,0.72-0.22,1.43-0.22,2.14c0,0.68,0.07,1.38,0.22,2.08c0.15,0.71,0.38,1.35,0.71,1.92c0.33,0.57,0.77,1.04,1.33,1.41
				c0.56,0.37,1.24,0.55,2.05,0.55c1.24,0,2.2-0.35,2.87-1.04c0.67-0.69,1.09-1.63,1.26-2.79h5c-0.34,2.51-1.31,4.42-2.92,5.73
				c-1.61,1.32-3.67,1.97-6.17,1.97c-1.41,0-2.71-0.24-3.89-0.71c-1.18-0.47-2.19-1.14-3.01-1.99c-0.83-0.85-1.47-1.87-1.94-3.05
				c-0.46-1.18-0.69-2.48-0.69-3.89c0-1.46,0.21-2.82,0.64-4.07c0.43-1.25,1.05-2.34,1.88-3.25s1.84-1.63,3.03-2.14
				c1.19-0.51,2.56-0.77,4.09-0.77c1.12,0,2.2,0.15,3.23,0.44c1.03,0.29,1.96,0.74,2.78,1.33c0.82,0.6,1.48,1.34,1.99,2.23
				c0.51,0.89,0.8,1.94,0.88,3.16h-5.08C158.71,42.62,157.43,41.53,155.21,41.53z"/>
			<path class="st3" d="M166.02,43.95c0.07-1.22,0.38-2.23,0.91-3.03c0.54-0.8,1.22-1.45,2.05-1.94c0.83-0.49,1.76-0.83,2.79-1.04
				c1.04-0.21,2.08-0.31,3.12-0.31c0.95,0,1.91,0.07,2.89,0.2c0.97,0.13,1.86,0.4,2.67,0.79c0.8,0.39,1.46,0.93,1.97,1.63
				c0.51,0.69,0.77,1.61,0.77,2.76v9.83c0,0.85,0.05,1.67,0.15,2.45c0.1,0.78,0.27,1.36,0.51,1.75h-5.26
				c-0.1-0.29-0.18-0.59-0.24-0.89c-0.06-0.3-0.1-0.62-0.13-0.93c-0.83,0.85-1.8,1.45-2.92,1.79c-1.12,0.34-2.26,0.51-3.43,0.51
				c-0.9,0-1.74-0.11-2.52-0.33c-0.78-0.22-1.46-0.56-2.05-1.02c-0.58-0.46-1.04-1.05-1.37-1.75c-0.33-0.71-0.49-1.55-0.49-2.52
				c0-1.07,0.19-1.95,0.57-2.65c0.38-0.69,0.86-1.25,1.46-1.66c0.6-0.41,1.28-0.72,2.05-0.93c0.77-0.21,1.54-0.37,2.32-0.49
				c0.78-0.12,1.55-0.22,2.3-0.29c0.75-0.07,1.42-0.18,2.01-0.33c0.59-0.15,1.05-0.36,1.39-0.64c0.34-0.28,0.5-0.69,0.47-1.22
				c0-0.56-0.09-1-0.27-1.33c-0.18-0.33-0.43-0.58-0.73-0.77c-0.3-0.18-0.66-0.3-1.06-0.37c-0.4-0.06-0.84-0.09-1.3-0.09
				c-1.02,0-1.83,0.22-2.41,0.66c-0.58,0.44-0.93,1.17-1.02,2.19H166.02z M178.01,47.78c-0.22,0.2-0.49,0.35-0.82,0.46
				c-0.33,0.11-0.68,0.2-1.06,0.27c-0.38,0.07-0.77,0.13-1.19,0.18c-0.41,0.05-0.83,0.11-1.24,0.18c-0.39,0.07-0.77,0.17-1.15,0.29
				c-0.38,0.12-0.71,0.29-0.99,0.49c-0.28,0.21-0.51,0.47-0.68,0.79c-0.17,0.32-0.26,0.72-0.26,1.21c0,0.46,0.09,0.85,0.26,1.17
				c0.17,0.32,0.4,0.57,0.69,0.75c0.29,0.18,0.63,0.31,1.02,0.38c0.39,0.07,0.79,0.11,1.21,0.11c1.02,0,1.81-0.17,2.37-0.51
				c0.56-0.34,0.97-0.75,1.24-1.22c0.27-0.47,0.43-0.96,0.49-1.44c0.06-0.49,0.09-0.88,0.09-1.17V47.78z"/>
			<path class="st3" d="M198.97,54.61c-0.61,1.02-1.41,1.76-2.39,2.21c-0.99,0.45-2.1,0.68-3.34,0.68c-1.41,0-2.66-0.27-3.73-0.82
				c-1.07-0.55-1.95-1.29-2.65-2.23c-0.69-0.94-1.22-2.01-1.57-3.23c-0.35-1.22-0.53-2.48-0.53-3.8c0-1.27,0.18-2.49,0.53-3.67
				c0.35-1.18,0.88-2.22,1.57-3.12c0.69-0.9,1.56-1.63,2.61-2.17c1.05-0.55,2.27-0.82,3.65-0.82c1.12,0,2.19,0.24,3.2,0.71
				c1.01,0.47,1.81,1.17,2.39,2.1h0.07v-9.5h5.19v26.08h-4.93v-2.41H198.97z M198.75,45.28c-0.15-0.72-0.4-1.35-0.75-1.9
				c-0.35-0.55-0.81-0.99-1.37-1.33c-0.56-0.34-1.27-0.51-2.12-0.51c-0.85,0-1.57,0.17-2.15,0.51c-0.59,0.34-1.05,0.79-1.41,1.35
				c-0.35,0.56-0.61,1.2-0.77,1.92c-0.16,0.72-0.24,1.47-0.24,2.25c0,0.73,0.09,1.46,0.26,2.19c0.17,0.73,0.44,1.38,0.82,1.95
				c0.38,0.57,0.85,1.04,1.42,1.39c0.57,0.35,1.26,0.53,2.06,0.53c0.85,0,1.56-0.17,2.14-0.51c0.57-0.34,1.03-0.8,1.37-1.37
				c0.34-0.57,0.58-1.22,0.73-1.95c0.15-0.73,0.22-1.49,0.22-2.27C198.97,46.75,198.9,46,198.75,45.28z"/>
			<path class="st3" d="M207.12,35.21v-4.27h5.19v4.27H207.12z M212.31,38.14v18.89h-5.19V38.14H212.31z"/>
			<path class="st3" d="M215.26,43.95c0.07-1.22,0.38-2.23,0.91-3.03c0.54-0.8,1.22-1.45,2.05-1.94c0.83-0.49,1.76-0.83,2.79-1.04
				c1.04-0.21,2.08-0.31,3.12-0.31c0.95,0,1.91,0.07,2.89,0.2c0.97,0.13,1.86,0.4,2.67,0.79c0.8,0.39,1.46,0.93,1.97,1.63
				c0.51,0.69,0.77,1.61,0.77,2.76v9.83c0,0.85,0.05,1.67,0.15,2.45c0.1,0.78,0.27,1.36,0.51,1.75h-5.26
				c-0.1-0.29-0.18-0.59-0.24-0.89c-0.06-0.3-0.1-0.62-0.13-0.93c-0.83,0.85-1.8,1.45-2.92,1.79c-1.12,0.34-2.26,0.51-3.43,0.51
				c-0.9,0-1.74-0.11-2.52-0.33c-0.78-0.22-1.46-0.56-2.05-1.02c-0.58-0.46-1.04-1.05-1.37-1.75c-0.33-0.71-0.49-1.55-0.49-2.52
				c0-1.07,0.19-1.95,0.57-2.65c0.38-0.69,0.86-1.25,1.46-1.66c0.6-0.41,1.28-0.72,2.05-0.93c0.77-0.21,1.54-0.37,2.32-0.49
				c0.78-0.12,1.55-0.22,2.3-0.29c0.75-0.07,1.42-0.18,2.01-0.33c0.59-0.15,1.05-0.36,1.39-0.64c0.34-0.28,0.5-0.69,0.47-1.22
				c0-0.56-0.09-1-0.27-1.33c-0.18-0.33-0.43-0.58-0.73-0.77c-0.3-0.18-0.66-0.3-1.06-0.37c-0.4-0.06-0.84-0.09-1.3-0.09
				c-1.02,0-1.83,0.22-2.41,0.66c-0.58,0.44-0.93,1.17-1.02,2.19H215.26z M227.25,47.78c-0.22,0.2-0.49,0.35-0.82,0.46
				c-0.33,0.11-0.68,0.2-1.06,0.27c-0.38,0.07-0.77,0.13-1.19,0.18c-0.41,0.05-0.83,0.11-1.24,0.18c-0.39,0.07-0.77,0.17-1.15,0.29
				c-0.38,0.12-0.71,0.29-0.99,0.49c-0.28,0.21-0.51,0.47-0.68,0.79c-0.17,0.32-0.26,0.72-0.26,1.21c0,0.46,0.09,0.85,0.26,1.17
				c0.17,0.32,0.4,0.57,0.69,0.75c0.29,0.18,0.63,0.31,1.02,0.38c0.39,0.07,0.79,0.11,1.21,0.11c1.02,0,1.81-0.17,2.37-0.51
				c0.56-0.34,0.97-0.75,1.24-1.22c0.27-0.47,0.43-0.96,0.49-1.44c0.06-0.49,0.09-0.88,0.09-1.17V47.78z"/>
		</g>
	</g>
	<g>
		<g>
			<g>
				<path class="st3" d="M88.35,75.6V64.03h2.77c3.91,0,5.54,2.03,5.54,5.69c0,3.93-1.98,5.88-5.9,5.88H88.35z M90.91,74.73
					c3.22,0,4.75-1.58,4.75-5.01c0-3.27-1.45-4.82-4.4-4.82h-1.92v9.83H90.91z"/>
				<path class="st3" d="M90.76,75.72h-2.54V63.9h2.9c3.81,0,5.67,1.9,5.67,5.81C96.79,73.7,94.76,75.72,90.76,75.72z M88.47,75.47
					h2.29c3.88,0,5.77-1.88,5.77-5.75c0-3.79-1.72-5.56-5.41-5.56h-2.64V75.47z M90.91,74.85h-1.69V64.77h2.04
					c3.05,0,4.53,1.62,4.53,4.95C95.79,73.22,94.24,74.85,90.91,74.85z M89.47,74.6h1.44c3.16,0,4.62-1.55,4.62-4.88
					c0-3.2-1.36-4.69-4.27-4.69h-1.79V74.6z"/>
			</g>
			<g>
				<path class="st3" d="M108.66,75.6l-1.21-3.8h-4.46l-1.21,3.8h-1l3.71-11.57h1.48l3.74,11.57H108.66z M103.24,70.93h3.93
					l-1.95-6.17h-0.03L103.24,70.93z"/>
				<path class="st3" d="M109.88,75.72h-1.32l-1.21-3.8h-4.28l-1.21,3.8h-1.27l0.05-0.17l3.73-11.66h1.67L109.88,75.72z
					 M108.75,75.47h0.78l-3.66-11.31h-1.3l-3.62,11.31h0.73l1.21-3.8h4.65L108.75,75.47z M107.35,71.05h-4.28l2.03-6.43h0.22
					L107.35,71.05z M103.42,70.8H107l-1.79-5.67L103.42,70.8z"/>
			</g>
			<g>
				<path class="st3" d="M116.14,75.6V64.9h-3.46v-0.87h7.93v0.87h-3.46v10.7H116.14z"/>
				<path class="st3" d="M117.27,75.72h-1.25v-10.7h-3.46V63.9h8.18v1.12h-3.46V75.72z M116.27,75.47h0.74v-10.7h3.46v-0.62h-7.67
					v0.62h3.46V75.47z"/>
			</g>
			<g>
				<path class="st3" d="M131.3,75.6l-1.21-3.8h-4.46l-1.21,3.8h-1l3.71-11.57h1.48l3.74,11.57H131.3z M125.89,70.93h3.93
					l-1.95-6.17h-0.03L125.89,70.93z"/>
				<path class="st3" d="M132.52,75.72h-1.32l-1.21-3.8h-4.28l-1.21,3.8h-1.27l0.05-0.17l3.73-11.66h1.67L132.52,75.72z
					 M131.39,75.47h0.78l-3.66-11.31h-1.3l-3.62,11.31h0.73l1.21-3.8h4.65L131.39,75.47z M129.99,71.05h-4.28l2.03-6.43h0.22
					L129.99,71.05z M126.06,70.8h3.58l-1.79-5.67L126.06,70.8z"/>
			</g>
			<g>
				<path class="st3" d="M150.72,75.6l-1.21-3.8h-4.46l-1.21,3.8h-1l3.71-11.57h1.48l3.74,11.57H150.72z M145.31,70.93h3.93
					l-1.95-6.17h-0.03L145.31,70.93z"/>
				<path class="st3" d="M151.95,75.72h-1.32l-1.21-3.8h-4.28l-1.21,3.8h-1.27l0.05-0.17l3.73-11.66h1.67L151.95,75.72z
					 M150.82,75.47h0.78l-3.66-11.31h-1.3l-3.62,11.31h0.73l1.21-3.8h4.65L150.82,75.47z M149.41,71.05h-4.28l2.03-6.43h0.22
					L149.41,71.05z M145.48,70.8h3.58l-1.79-5.67L145.48,70.8z"/>
			</g>
			<g>
				<path class="st3" d="M156.91,75.6V64.03h1v10.7h5.2v0.87H156.91z"/>
				<path class="st3" d="M163.24,75.72h-6.46V63.9h1.25v10.7h5.2V75.72z M157.03,75.47h5.95v-0.62h-5.2v-10.7h-0.74V75.47z"/>
			</g>
			<g>
				<path class="st3" d="M168,75.6V64.03h1v10.7h5.2v0.87H168z"/>
				<path class="st3" d="M174.33,75.72h-6.46V63.9h1.25v10.7h5.2V75.72z M168.13,75.47h5.95v-0.62h-5.2v-10.7h-0.74V75.47z"/>
			</g>
			<g>
				<path class="st3" d="M179.1,75.6V64.03h1V75.6H179.1z"/>
				<path class="st3" d="M180.22,75.72h-1.25V63.9h1.25V75.72z M179.23,75.47h0.74V64.16h-0.74V75.47z"/>
			</g>
			<g>
				<path class="st3" d="M193.11,75.6l-1.21-3.8h-4.46l-1.21,3.8h-1l3.71-11.57h1.48l3.74,11.57H193.11z M187.7,70.93h3.93
					l-1.95-6.17h-0.03L187.7,70.93z"/>
				<path class="st3" d="M194.34,75.72h-1.32l-1.21-3.8h-4.28l-1.21,3.8h-1.27l0.05-0.17l3.73-11.66h1.67L194.34,75.72z
					 M193.21,75.47h0.78l-3.66-11.31h-1.3l-3.62,11.31h0.73l1.21-3.8H192L193.21,75.47z M191.8,71.05h-4.28l2.03-6.43h0.22
					L191.8,71.05z M187.87,70.8h3.58l-1.79-5.67L187.87,70.8z"/>
			</g>
			<g>
				<path class="st3" d="M206.56,75.6l-6.27-10.81h-0.03V75.6h-0.97V64.03h1.69l5.57,9.76h0.03v-9.76h0.97V75.6H206.56z"/>
				<path class="st3" d="M207.69,75.72h-1.2l-6.1-10.52v10.52h-1.22V63.9h1.89l0.04,0.06l5.37,9.4V63.9h1.22V75.72z M206.63,75.47
					h0.8V64.16h-0.71v9.76h-0.2l-0.07-0.06l-5.54-9.7h-1.49v11.31h0.71V64.66h0.2l0.07,0.06L206.63,75.47z"/>
			</g>
			<g>
				<path class="st3" d="M221.44,72.25c-0.64,2.55-2.06,3.54-4.12,3.54c-3.05,0-4.32-2.3-4.32-6.01c0-3.75,1.64-5.94,4.37-5.94
					c2,0,3.25,0.95,3.9,3.4l-0.93,0.21c-0.56-1.9-1.51-2.75-2.96-2.75c-2.05,0-3.37,2.01-3.37,5.09c0,3.29,1.08,5.16,3.32,5.16
					c1.63,0,2.67-0.92,3.21-2.88L221.44,72.25z"/>
				<path class="st3" d="M217.32,75.92c-2.95,0-4.45-2.06-4.45-6.14c0-3.8,1.68-6.07,4.49-6.07c2.15,0,3.39,1.08,4.02,3.49
					l0.03,0.13l-1.18,0.26l-0.03-0.11c-0.54-1.82-1.44-2.66-2.84-2.66c-1.97,0-3.24,1.95-3.24,4.96c0,2.29,0.55,5.03,3.19,5.03
					c1.59,0,2.57-0.89,3.08-2.79l0.03-0.12l1.17,0.24l-0.03,0.13C220.95,74.73,219.56,75.92,217.32,75.92z M217.37,63.96
					c-2.65,0-4.24,2.17-4.24,5.82c0,3.9,1.41,5.88,4.19,5.88c2.09,0,3.36-1.06,3.97-3.32l-0.67-0.14c-0.55,1.92-1.63,2.86-3.3,2.86
					c-2.25,0-3.45-1.83-3.45-5.28c0-3.17,1.37-5.22,3.49-5.22c1.5,0,2.47,0.87,3.05,2.73l0.69-0.15
					C220.5,64.94,219.34,63.96,217.37,63.96z"/>
			</g>
			<g>
				<path class="st3" d="M226.75,75.6V64.03h6.61v0.87h-5.61v4.24h4.04v0.87h-4.04v4.72h5.91v0.87H226.75z"/>
				<path class="st3" d="M233.79,75.72h-7.17V63.9h6.86v1.12h-5.61v3.98h4.04v1.12h-4.04v4.47h5.91V75.72z M226.88,75.47h6.66v-0.62
					h-5.91v-4.97h4.04v-0.62h-4.04v-4.49h5.61v-0.62h-6.35V75.47z"/>
			</g>
		</g>
	</g>
</g>
</svg>
